@startuml


!define primary_key(name, type) <b><color:#b8861b><&key></color> <u>name</u> : <color:#e76f51><i>type</i></color></b>
!define foreign_key(name, type) <color:#aaaaaa><&key></color> name : <color:#e76f51><i>type</i></color>
!define column(name, type) <color:#efefef><&media-record></color> name : <color:#e76f51><i>type</i></color>
!define table(x) entity x << (T, white) >>

hide methods

table(StageElement) {
	primary_key(id, int)
	column(numberOfParticipants, int)
	column(numberOfParticipantsThatQualify, int)
	column(name, String)
	column(description, String)
	column(type, String)
}

table(Stage) {
	primary_key(id, int)
	foreign_key(stageElementId, int)
	column(name, String)
}

table(Person) {
	primary_key(id, int)
	column(name, String)
	column(surname, String)
	' new :
	column(gender, String)
	column(birthDate, String)
}

table(Participant) {
	primary_key(id, int)
	foreign_key(personId, int)
	column(category, String)
	column(present, boolean)
	' new :
	column(license, String)
	column(initialLocalRanking, int)
	column(initialInternationalRanking, int)
	column(league, String)
	column(club, String)
	column(nationality, String)
}

table(Formula) {
	primary_key(id, int)
	column(name, String)
	column(description, String)
}

table(Competition) {
	primary_key(id, int)
	foreign_key(formulaId, int)
	column(name, String)
	column(status, String)
	column(category, String)
}

StageElement "0..*" <-- "0..1" Stage : has a
' Stage "0..*" --> "0..*" Participant : participants -> Has to be replaced by a table

table(StageParticipants) {
	primary_key(id, int)
	foreign_key(stageId, int)
	foreign_key(participantId, int)
}

Stage "0..*" <-- "0..1" StageParticipants
StageParticipants "0..*" --> "0..1" Participant


' Competition "0..*" --> "1" Stage : stages -> Has to be replaced by a table

table(CompetitionStages) {
	primary_key(id, int)
	foreign_key(competitionId, int)
	foreign_key(stageId, int)
}

Competition "0..*" <-- "0..1" CompetitionStages
CompetitionStages "0..*" --> "0..1" Stage
Competition "0..1" --> "0..*" Formula : formula 

' Formula "1..1" --> "0..*" StageElement : components -> Has to be replaced by a table

table(FormulaStageElements) {
	primary_key(id, int)
	foreign_key(formulaId, int)
	foreign_key(stageElementId, int)
}

Formula "1..1" <-- "0..1" FormulaStageElements
FormulaStageElements "0..*" --> "0..1" StageElement

Participant "0..1" --> "0..1" Person : person

@enduml